<?xml version="1.0" encoding="UTF-8" standalone="no"?>
<!-- Generated by graphviz version 2.38.0 (20140413.2041)
 -->

<!-- Title: test Pages: 1 -->

<svg
   xmlns:dc="http://purl.org/dc/elements/1.1/"
   xmlns:cc="http://creativecommons.org/ns#"
   xmlns:rdf="http://www.w3.org/1999/02/22-rdf-syntax-ns#"
   xmlns:svg="http://www.w3.org/2000/svg"
   xmlns="http://www.w3.org/2000/svg"
   xmlns:sodipodi="http://sodipodi.sourceforge.net/DTD/sodipodi-0.dtd"
   xmlns:inkscape="http://www.inkscape.org/namespaces/inkscape"
   width="380pt"
   height="188pt"
   viewBox="0.00 0.00 379.67 188.00"
   id="svg2"
   version="1.1"
   inkscape:version="0.47 r22583"
   sodipodi:docname="pathway.svg">
  <metadata
     id="metadata132">
    <rdf:RDF>
      <cc:Work
         rdf:about="">
        <dc:format>image/svg+xml</dc:format>
        <dc:type
           rdf:resource="http://purl.org/dc/dcmitype/StillImage" />
      </cc:Work>
    </rdf:RDF>
  </metadata>
  <defs
     id="defs130">
    <inkscape:perspective
       sodipodi:type="inkscape:persp3d"
       inkscape:vp_x="0 : 117.5 : 1"
       inkscape:vp_y="0 : 1000 : 0"
       inkscape:vp_z="475 : 117.5 : 1"
       inkscape:persp3d-origin="237.5 : 78.333333 : 1"
       id="perspective134" />
    <inkscape:perspective
       id="perspective2952"
       inkscape:persp3d-origin="0.5 : 0.33333333 : 1"
       inkscape:vp_z="1 : 0.5 : 1"
       inkscape:vp_y="0 : 1000 : 0"
       inkscape:vp_x="0 : 0.5 : 1"
       sodipodi:type="inkscape:persp3d" />
    <inkscape:perspective
       id="perspective2977"
       inkscape:persp3d-origin="0.5 : 0.33333333 : 1"
       inkscape:vp_z="1 : 0.5 : 1"
       inkscape:vp_y="0 : 1000 : 0"
       inkscape:vp_x="0 : 0.5 : 1"
       sodipodi:type="inkscape:persp3d" />
    <inkscape:perspective
       id="perspective2977-7"
       inkscape:persp3d-origin="0.5 : 0.33333333 : 1"
       inkscape:vp_z="1 : 0.5 : 1"
       inkscape:vp_y="0 : 1000 : 0"
       inkscape:vp_x="0 : 0.5 : 1"
       sodipodi:type="inkscape:persp3d" />
    <inkscape:perspective
       id="perspective3013"
       inkscape:persp3d-origin="0.5 : 0.33333333 : 1"
       inkscape:vp_z="1 : 0.5 : 1"
       inkscape:vp_y="0 : 1000 : 0"
       inkscape:vp_x="0 : 0.5 : 1"
       sodipodi:type="inkscape:persp3d" />
  </defs>
  <sodipodi:namedview
     pagecolor="#ffffff"
     bordercolor="#666666"
     borderopacity="1"
     objecttolerance="10"
     gridtolerance="10"
     guidetolerance="10"
     inkscape:pageopacity="0"
     inkscape:pageshadow="2"
     inkscape:window-width="1200"
     inkscape:window-height="1780"
     id="namedview128"
     showgrid="false"
     inkscape:zoom="1.0042553"
     inkscape:cx="237.5"
     inkscape:cy="115.50847"
     inkscape:window-x="0"
     inkscape:window-y="25"
     inkscape:window-maximized="1"
     inkscape:current-layer="svg2" />
  <g
     id="graph0"
     class="graph"
     transform="scale(1 1) rotate(0) translate(4 184)">
    <title
       id="title5">test</title>
    <polygon
       fill="white"
       stroke="none"
       points="-4,4 -4,-184 375.669,-184 375.669,4 -4,4"
       id="polygon7" />
    <!-- test_bk0 -->
    <g
       id="Pathway X"
       class="node">
      <title
         id="title10">test_bk0</title>
      <path
         fill="pink"
         stroke="black"
         d="M176.838,-159.515C176.838,-159.515 176.838,-164.485 176.838,-164.485 176.838,-166.971 174.479,-170.237 172.12,-171.019 172.12,-171.019 149.726,-178.437 149.726,-178.437 147.367,-179.218 142.522,-180 140.037,-180 140.037,-180 104.963,-180 104.963,-180 102.478,-180 97.6331,-179.218 95.2739,-178.437 95.2739,-178.437 72.88,-171.019 72.88,-171.019 70.5208,-170.237 68.1616,-166.971 68.1616,-164.485 68.1616,-164.485 68.1616,-159.515 68.1616,-159.515 68.1616,-157.029 70.5208,-153.763 72.88,-152.981 72.88,-152.981 95.2739,-145.563 95.2739,-145.563 97.6331,-144.782 102.478,-144 104.963,-144 104.963,-144 140.037,-144 140.037,-144 142.522,-144 147.367,-144.782 149.726,-145.563 149.726,-145.563 172.12,-152.981 172.12,-152.981 174.479,-153.763 176.838,-157.029 176.838,-159.515"
         id="path12" />
      <text
         text-anchor="middle"
         x="122.5"
         y="-158.3"
         font-family="Times,serif"
         font-size="14.00"
         fill="blue"
         id="text14">Pathway X</text>
    </g>
    <!-- test_bk01 -->
    <g
       id="Block reaction 1"
       class="node">
      <title
         id="title17">test_bk01</title>
      <path
         fill="pink"
         stroke="black"
         d="M234,-108C234,-108 151,-108 151,-108 145,-108 139,-102 139,-96 139,-96 139,-84 139,-84 139,-78 145,-72 151,-72 151,-72 234,-72 234,-72 240,-72 246,-78 246,-84 246,-84 246,-96 246,-96 246,-102 240,-108 234,-108"
         id="path19" />
      <text
         text-anchor="middle"
         x="192.5"
         y="-86.3"
         font-family="Times,serif"
         font-size="14.00"
         fill="blue"
         id="text21">Block reaction 1</text>
    </g>
    <!-- test_bk0&#45;&gt;test_bk01 -->
    <g
       id="edge1"
       class="edge">
      <title
         id="title24">test_bk0-&gt;test_bk01</title>
      <path
         fill="none"
         stroke="black"
         d="M139.803,-143.697C148.365,-135.135 158.844,-124.656 168.196,-115.304"
         id="path26" />
      <polygon
         fill="black"
         stroke="black"
         points="170.799,-117.65 175.396,-108.104 165.85,-112.701 170.799,-117.65"
         id="polygon28" />
    </g>
    <!-- test_bk02 -->
    <g
       id="Block reaction 2"
       class="node">
      <title
         id="title31">test_bk02</title>
      <path
         fill="pink"
         stroke="black"
         d="M95,-108C95,-108 12,-108 12,-108 6,-108 0,-102 0,-96 0,-96 0,-84 0,-84 0,-78 6,-72 12,-72 12,-72 95,-72 95,-72 101,-72 107,-78 107,-84 107,-84 107,-96 107,-96 107,-102 101,-108 95,-108"
         id="path33" />
      <text
         text-anchor="middle"
         x="53.5"
         y="-86.3"
         font-family="Times,serif"
         font-size="14.00"
         fill="blue"
         id="text35">Block reaction 2</text>
    </g>
    <!-- test_bk0&#45;&gt;test_bk02 -->
    <g
       id="edge3"
       class="edge">
      <title
         id="title38">test_bk0-&gt;test_bk02</title>
      <path
         fill="none"
         stroke="black"
         d="M105.444,-143.697C97.0045,-135.135 86.6754,-124.656 77.4573,-115.304"
         id="path40" />
      <polygon
         fill="black"
         stroke="black"
         points="79.8727,-112.769 70.36,-108.104 74.8874,-117.683 79.8727,-112.769"
         id="polygon42" />
    </g>
    <!-- test_bk012 -->
    <g
       id="Reaction 1"
       class="node">
      <title
         id="title45">test_bk012</title>
      <path
         fill="Powderblue"
         stroke="black"
         d="M157,-36C157,-36 106,-36 106,-36 100,-36 94,-30 94,-24 94,-24 94,-12 94,-12 94,-6 100,-0 106,-0 106,-0 157,-0 157,-0 163,-0 169,-6 169,-12 169,-12 169,-24 169,-24 169,-30 163,-36 157,-36"
         id="path47" />
      <text
         text-anchor="middle"
         x="131.5"
         y="-14.3"
         font-family="Times,serif"
         font-size="14.00"
         fill="blue"
         id="text49">Reaction 1</text>
    </g>
    <!-- test_bk01&#45;&gt;test_bk012 -->
    <g
       id="edge2"
       class="edge">
      <title
         id="title52">test_bk01-&gt;test_bk012</title>
      <path
         fill="none"
         stroke="black"
         d="M177.421,-71.6966C170.108,-63.3046 161.19,-53.0705 153.165,-43.8613"
         id="path54" />
      <polygon
         fill="black"
         stroke="black"
         points="155.614,-41.344 146.405,-36.1043 150.336,-45.9429 155.614,-41.344"
         id="polygon56" />
    </g>
    <!-- test_bk011 -->
    <g
       id="Reaction 2"
       class="node">
      <title
         id="title59">test_bk011</title>
      <path
         fill="pink"
         stroke="black"
         d="M250,-36C250,-36 199,-36 199,-36 193,-36 187,-30 187,-24 187,-24 187,-12 187,-12 187,-6 193,-0 199,-0 199,-0 250,-0 250,-0 256,-0 262,-6 262,-12 262,-12 262,-24 262,-24 262,-30 256,-36 250,-36"
         id="path61" />
      <text
         text-anchor="middle"
         x="224.5"
         y="-14.3"
         font-family="Times,serif"
         font-size="14.00"
         fill="blue"
         id="text63">Reaction 2</text>
    </g>
    <!-- test_bk01&#45;&gt;test_bk011 -->
    <g
       id="edge4"
       class="edge">
      <title
         id="title66">test_bk01-&gt;test_bk011</title>
      <path
         fill="none"
         stroke="black"
         d="M200.41,-71.6966C204.053,-63.7284 208.454,-54.0995 212.494,-45.2641"
         id="path68" />
      <polygon
         fill="black"
         stroke="black"
         points="215.706,-46.6543 216.681,-36.1043 209.34,-43.7439 215.706,-46.6543"
         id="polygon70" />
    </g>
    <!-- test_bk013 -->
    <g
       id="Reaction 3"
       class="node">
      <title
         id="title73">test_bk013</title>
      <path
         fill="Powderblue"
         stroke="black"
         d="M343,-36C343,-36 292,-36 292,-36 286,-36 280,-30 280,-24 280,-24 280,-12 280,-12 280,-6 286,-0 292,-0 292,-0 343,-0 343,-0 349,-0 355,-6 355,-12 355,-12 355,-24 355,-24 355,-30 349,-36 343,-36"
         id="path75" />
      <text
         text-anchor="middle"
         x="317.5"
         y="-14.3"
         font-family="Times,serif"
         font-size="14.00"
         fill="blue"
         id="text77">Reaction 3</text>
    </g>
    <!-- test_bk01&#45;&gt;test_bk013 -->
    <g
       id="edge5"
       class="edge">
      <title
         id="title80">test_bk01-&gt;test_bk013</title>
      <path
         fill="none"
         stroke="black"
         d="M223.078,-71.8761C239.574,-62.6388 260.124,-51.1308 277.836,-41.2116"
         id="path82" />
      <polygon
         fill="black"
         stroke="black"
         points="279.789,-44.1296 286.804,-36.1898 276.369,-38.0221 279.789,-44.1296"
         id="polygon84" />
    </g>
    <!-- test_bk031 -->
    <g
       id="Reaction 4"
       class="node">
      <title
         id="title87">test_bk031</title>
      <path
         fill="pink"
         stroke="black"
         d="M64,-36C64,-36 13,-36 13,-36 7,-36 1,-30 1,-24 1,-24 1,-12 1,-12 1,-6 7,-0 13,-0 13,-0 64,-0 64,-0 70,-0 76,-6 76,-12 76,-12 76,-24 76,-24 76,-30 70,-36 64,-36"
         id="path89" />
      <text
         text-anchor="middle"
         x="38.5"
         y="-14.3"
         font-family="Times,serif"
         font-size="14.00"
         fill="blue"
         id="text91">Reaction 4</text>
    </g>
    <!-- test_bk02&#45;&gt;test_bk031 -->
    <g
       id="edge6"
       class="edge">
      <title
         id="title94">test_bk02-&gt;test_bk031</title>
      <path
         fill="none"
         stroke="black"
         d="M49.7921,-71.6966C48.1392,-63.9827 46.1527,-54.7125 44.3098,-46.1124"
         id="path96" />
      <polygon
         fill="black"
         stroke="black"
         points="47.6829,-45.149 42.1652,-36.1043 40.8383,-46.6157 47.6829,-45.149"
         id="polygon98" />
    </g>
    <!-- test_bk1 -->
    <g
       id="Pathway Y"
       class="node">
      <title
         id="title101">test_bk1</title>
      <path
         fill="Powderblue"
         stroke="black"
         d="M371.838,-159.515C371.838,-159.515 371.838,-164.485 371.838,-164.485 371.838,-166.971 369.479,-170.237 367.12,-171.019 367.12,-171.019 344.726,-178.437 344.726,-178.437 342.367,-179.218 337.522,-180 335.037,-180 335.037,-180 299.963,-180 299.963,-180 297.478,-180 292.633,-179.218 290.274,-178.437 290.274,-178.437 267.88,-171.019 267.88,-171.019 265.521,-170.237 263.162,-166.971 263.162,-164.485 263.162,-164.485 263.162,-159.515 263.162,-159.515 263.162,-157.029 265.521,-153.763 267.88,-152.981 267.88,-152.981 290.274,-145.563 290.274,-145.563 292.633,-144.782 297.478,-144 299.963,-144 299.963,-144 335.037,-144 335.037,-144 337.522,-144 342.367,-144.782 344.726,-145.563 344.726,-145.563 367.12,-152.981 367.12,-152.981 369.479,-153.763 371.838,-157.029 371.838,-159.515"
         id="path103" />
      <text
         text-anchor="middle"
         x="317.5"
         y="-158.3"
         font-family="Times,serif"
         font-size="14.00"
         fill="blue"
         id="text105">Pathway Y</text>
    </g>
    <!-- test_bk11 -->
    <g
       id="Block reaction 3"
       class="node">
      <title
         id="title108">test_bk11</title>
      <path
         fill="Powderblue"
         stroke="black"
         d="M359,-108C359,-108 276,-108 276,-108 270,-108 264,-102 264,-96 264,-96 264,-84 264,-84 264,-78 270,-72 276,-72 276,-72 359,-72 359,-72 365,-72 371,-78 371,-84 371,-84 371,-96 371,-96 371,-102 365,-108 359,-108"
         id="path110" />
      <text
         text-anchor="middle"
         x="317.5"
         y="-86.3"
         font-family="Times,serif"
         font-size="14.00"
         fill="blue"
         id="text112">Block reaction 3</text>
    </g>
    <!-- test_bk1&#45;&gt;test_bk11 -->
    <g
       id="edge7"
       class="edge">
      <title
         id="title115">test_bk1-&gt;test_bk11</title>
      <path
         fill="none"
         stroke="black"
         d="M317.5,-143.697C317.5,-135.983 317.5,-126.712 317.5,-118.112"
         id="path117" />
      <polygon
         fill="black"
         stroke="black"
         points="321,-118.104 317.5,-108.104 314,-118.104 321,-118.104"
         id="polygon119" />
    </g>
    <!-- test_bk11&#45;&gt;test_bk013 -->
    <g
       id="edge8"
       class="edge">
      <title
         id="title122">test_bk11-&gt;test_bk013</title>
      <path
         fill="none"
         stroke="black"
         d="M317.5,-71.6966C317.5,-63.9827 317.5,-54.7125 317.5,-46.1124"
         id="path124" />
      <polygon
         fill="black"
         stroke="black"
         points="321,-46.1043 317.5,-36.1043 314,-46.1044 321,-46.1043"
         id="polygon126" />
    </g>
  </g>
  <text
     xml:space="preserve"
     style="font-size:32px;font-style:normal;font-weight:normal;fill:#000000;fill-opacity:1;stroke:none;font-family:Bitstream Vera Sans"
     x="101.80789"
     y="1.5932207"
     id="text2940"><tspan
       sodipodi:role="line"
       id="tspan2942"
       x="101.80789"
       y="1.5932207"
       style="font-size:11.19999981px;fill:#808080">Or node</tspan></text>
  <text
     xml:space="preserve"
     style="font-size:32px;font-style:normal;font-weight:normal;fill:#000000;fill-opacity:1;stroke:none;font-family:Bitstream Vera Sans"
     x="183.66406"
     y="72.683868"
     id="text2940-2"><tspan
       sodipodi:role="line"
       id="tspan2942-4"
       x="183.66406"
       y="72.683868"
       style="font-size:11.19999981px;fill:#808080">And node</tspan></text>
  <text
     xml:space="preserve"
     style="font-size:32px;font-style:normal;font-weight:normal;fill:#000000;fill-opacity:1;stroke:none;font-family:Bitstream Vera Sans"
     x="325.49255"
     y="72.683868"
     id="text2940-2-2"><tspan
       sodipodi:role="line"
       id="tspan2942-4-1"
       x="325.49255"
       y="72.683868"
       style="font-size:11.19999981px;fill:#808080">And node</tspan></text>
  <text
     xml:space="preserve"
     style="font-size:32px;font-style:normal;font-weight:normal;fill:#000000;fill-opacity:1;stroke:none;font-family:Bitstream Vera Sans"
     x="14.814604"
     y="72.683868"
     id="text2940-2-7"><tspan
       sodipodi:role="line"
       id="tspan2942-4-6"
       x="14.814604"
       y="72.683868"
       style="font-size:11.19999981px;fill:#808080">And node</tspan></text>
  <text
     xml:space="preserve"
     style="font-size:32px;font-style:normal;font-weight:normal;fill:#000000;fill-opacity:1;stroke:none;font-family:Bitstream Vera Sans"
     x="298.37595"
     y="1.7855603"
     id="text2940-0"><tspan
       sodipodi:role="line"
       id="tspan2942-0"
       x="298.37595"
       y="1.7855603"
       style="font-size:11.19999981px;fill:#808080">Or node</tspan></text>
</svg>
